<mxfile host="Electron" modified="2024-02-21T05:24:16.564Z" agent="Mozilla/5.0 (Windows NT 10.0; Win64; x64) AppleWebKit/537.36 (KHTML, like Gecko) draw.io/23.1.5 Chrome/120.0.6099.109 Electron/28.1.0 Safari/537.36" etag="IfASqWCKLHMHmK3w3_eK" version="23.1.5" type="device">
  <diagram name="PÃ¡gina-1" id="9fxfeTmWkgIA3ihFr3Ko">
    <mxGraphModel dx="715" dy="1599" grid="1" gridSize="10" guides="1" tooltips="1" connect="1" arrows="1" fold="1" page="1" pageScale="1" pageWidth="827" pageHeight="1169" math="0" shadow="0">
      <root>
        <mxCell id="0" />
        <mxCell id="1" parent="0" />
        <mxCell id="Rj1qVixPCbrloiX-BeRR-1" value="" style="whiteSpace=wrap;html=1;aspect=fixed;" vertex="1" parent="1">
          <mxGeometry x="330" y="-650" width="340" height="340" as="geometry" />
        </mxCell>
        <mxCell id="Rj1qVixPCbrloiX-BeRR-2" value="Clientes" style="shape=umlActor;verticalLabelPosition=bottom;verticalAlign=top;html=1;outlineConnect=0;" vertex="1" parent="1">
          <mxGeometry x="210" y="-600" width="30" height="60" as="geometry" />
        </mxCell>
        <mxCell id="Rj1qVixPCbrloiX-BeRR-4" value="Administrador" style="shape=umlActor;verticalLabelPosition=bottom;verticalAlign=top;html=1;outlineConnect=0;" vertex="1" parent="1">
          <mxGeometry x="210" y="-480" width="30" height="60" as="geometry" />
        </mxCell>
        <mxCell id="Rj1qVixPCbrloiX-BeRR-6" value="Biblioteca&lt;div&gt;&lt;br/&gt;&lt;/div&gt;" style="rounded=1;whiteSpace=wrap;html=1;" vertex="1" parent="1">
          <mxGeometry x="400" y="-730" width="200" height="60" as="geometry" />
        </mxCell>
      </root>
    </mxGraphModel>
  </diagram>
</mxfile>
